<svg xmlns="http://www.w3.org/2000/svg" viewBox="0 0 100 100">
  <defs>
    <linearGradient id="g" x1="0%" y1="0%" x2="100%" y2="100%">
      <stop offset="0%" style="stop-color:#3b82f6"/>
      <stop offset="100%" style="stop-color:#1d4ed8"/>
    </linearGradient>
  </defs>
  <circle cx="50" cy="50" r="48" fill="url(#g)"/>
  <g transform="translate(50,50)" stroke="white" stroke-width="3.5" stroke-linecap="round" fill="none">
    <line y1="-28" y2="28"/>
    <line y1="-28" y2="28" transform="rotate(60)"/>
    <line y1="-28" y2="28" transform="rotate(120)"/>
    <line x1="-8" y1="-18" x2="0" y2="-22"/>
    <line x1="8" y1="-18" x2="0" y2="-22"/>
    <line x1="-8" y1="18" x2="0" y2="22"/>
    <line x1="8" y1="18" x2="0" y2="22"/>
    <line x1="-8" y1="-18" x2="0" y2="-22" transform="rotate(60)"/>
    <line x1="8" y1="-18" x2="0" y2="-22" transform="rotate(60)"/>
    <line x1="-8" y1="18" x2="0" y2="22" transform="rotate(60)"/>
    <line x1="8" y1="18" x2="0" y2="22" transform="rotate(60)"/>
    <line x1="-8" y1="-18" x2="0" y2="-22" transform="rotate(120)"/>
    <line x1="8" y1="-18" x2="0" y2="-22" transform="rotate(120)"/>
    <line x1="-8" y1="18" x2="0" y2="22" transform="rotate(120)"/>
    <line x1="8" y1="18" x2="0" y2="22" transform="rotate(120)"/>
  </g>
</svg>
